<?xml version="1.0" encoding="iso-8859-1"?>
<!-- Generator: Adobe Illustrator 19.0.0, SVG Export Plug-In . SVG Version: 6.00 Build 0)  -->
<svg version="1.1" id="Capa_1" xmlns="http://www.w3.org/2000/svg" xmlns:xlink="http://www.w3.org/1999/xlink" x="0px" y="0px"
	 viewBox="0 0 229.588 229.588" style="enable-background:new 0 0 229.588 229.588;" xml:space="preserve">
<g>
	<path d="M74.662,167.681l0.005-5.295c0.002-1.863-0.725-3.521-2.047-4.844c-1.321-1.322-3.075-1.954-4.938-1.954h-0.329
		c-1.864,0-3.618,0.631-4.94,1.956c-1.321,1.323-2.047,3.03-2.043,4.892l0.008,5.27c-2.184,0.135-4.223,1.031-5.788,2.599
		c-1.699,1.702-2.634,3.953-2.63,6.349l0.071,43.724c0.009,4.954,4.046,9.21,8.999,9.21h13.009c4.956,0,8.991-4.26,8.995-9.215
		l0.045-43.613c0.003-2.396-0.933-4.709-2.632-6.411C78.882,168.783,76.844,167.817,74.662,167.681z"/>
	<path d="M174.785,90.527l-18.804-26.29c-3.443-4.799-10.769-8.649-16.677-8.649h-4.253h-2.091c8.544-5,14.245-14.71,14.245-25.498
		C147.206,13.473,133.687,0,117.07,0c-16.616,0-30.135,13.45-30.135,30.067c0,10.788,5.701,20.521,14.245,25.521h-1.075h-1.016
		h-4.253c-5.908,0-13.233,3.851-16.677,8.649L59.356,90.481c-3.608,5.028-3.808,13.062-0.454,18.261l14.168,21.981
		c2.995,4.643,9.168,8.352,14.53,8.87c1.299,2.46,3.366,4.448,5.878,5.658l0.096,65.12c0.015,10.469,8.544,19.216,19.013,19.216
		h9.021c10.47,0,18.995-8.747,19.004-19.215l0.061-65.008c2.507-1.211,4.571-3.251,5.868-5.707c5.363-0.519,11.536-4.25,14.53-8.893
		l14.168-21.984C178.592,103.581,178.393,95.556,174.785,90.527z M85.938,115.77l-5.789-8.285c-2.058-2.904-1.884-7.834,0.416-10.55
		l5.373-6.391V115.77z M117.07,115.543l-11.579-6.92l4.863-40.036h13.432l4.863,40.036L117.07,115.543z M153.917,107.484
		l-5.979,8.285V91.738l5.161,5.581C155.524,99.924,155.976,104.579,153.917,107.484z"/>
</g>
<g>
</g>
<g>
</g>
<g>
</g>
<g>
</g>
<g>
</g>
<g>
</g>
<g>
</g>
<g>
</g>
<g>
</g>
<g>
</g>
<g>
</g>
<g>
</g>
<g>
</g>
<g>
</g>
<g>
</g>
</svg>
