<?xml version="1.0" encoding="iso-8859-1"?>
<!-- Generator: Adobe Illustrator 16.0.0, SVG Export Plug-In . SVG Version: 6.00 Build 0)  -->
<!DOCTYPE svg PUBLIC "-//W3C//DTD SVG 1.1//EN" "http://www.w3.org/Graphics/SVG/1.1/DTD/svg11.dtd">
<svg version="1.1" id="Capa_1" xmlns="http://www.w3.org/2000/svg" xmlns:xlink="http://www.w3.org/1999/xlink" x="0px" y="0px"
	 width="460px" height="460px" viewBox="0 0 460 460" style="enable-background:new 0 0 460 460;" xml:space="preserve">
<g>
	<g>
		<path d="M107,200.812h48c5.522,0,10-4.478,10-10c0-5.523-4.478-10-10-10h-48c-5.522,0-10,4.477-10,10
			C97,196.334,101.478,200.812,107,200.812z"/>
		<path d="M344,190.812c0-5.523-4.478-10-10-10H194c-5.522,0-10,4.477-10,10c0,5.522,4.478,10,10,10h140
			C339.522,200.812,344,196.334,344,190.812z"/>
		<path d="M107,247.213h118c5.522,0,10-4.479,10-10c0-5.523-4.478-10-10-10H107c-5.522,0-10,4.477-10,10
			C97,242.735,101.478,247.213,107,247.213z"/>
		<path d="M52.5,350.021V150.812h336V270.66l30,30V150.812h2.5c11.046,0,20-8.954,20-20V69.195c0-11.046-8.954-20-20-20H20
			c-11.046,0-20,8.954-20,20v61.617c0,11.046,8.954,20,20,20h2.5v209.209c0,11.047,8.954,20,20,20h315.07l-30-30H52.5z"/>
		<path d="M458.184,364.871l-25.2-25.201l-44.119,44.117l25.203,25.203c2.422,2.42,6.349,2.42,8.77,0l35.348-35.35
			C460.605,371.219,460.605,367.293,458.184,364.871z"/>
		<path d="M340.844,247.531c-0.861-0.861-1.959-1.449-3.151-1.693l-44.35-9c-2.038-0.414-4.146,0.222-5.618,1.691
			c-1.471,1.471-2.106,3.581-1.692,5.619l9,44.35c0.244,1.193,0.832,2.289,1.692,3.15l81.306,81.305l44.116-44.117L340.844,247.531z
			 M304.088,275.766l-4.908-24.178c-0.091-0.447,0.05-0.908,0.371-1.231c0.323-0.323,0.783-0.461,1.23-0.372l24.18,4.908
			L304.088,275.766z"/>
	</g>
</g>
<g>
</g>
<g>
</g>
<g>
</g>
<g>
</g>
<g>
</g>
<g>
</g>
<g>
</g>
<g>
</g>
<g>
</g>
<g>
</g>
<g>
</g>
<g>
</g>
<g>
</g>
<g>
</g>
<g>
</g>
</svg>
