<?xml version="1.0" encoding="iso-8859-1"?>
<!-- Generator: Adobe Illustrator 16.0.0, SVG Export Plug-In . SVG Version: 6.00 Build 0)  -->
<!DOCTYPE svg PUBLIC "-//W3C//DTD SVG 1.1//EN" "http://www.w3.org/Graphics/SVG/1.1/DTD/svg11.dtd">
<svg version="1.1" id="Capa_1" xmlns="http://www.w3.org/2000/svg" xmlns:xlink="http://www.w3.org/1999/xlink" x="0px" y="0px"
	 width="378.575px" height="378.575px" viewBox="0 0 378.575 378.575" style="enable-background:new 0 0 378.575 378.575;"
	 xml:space="preserve">
<g>
	<g>
		<path d="M0,84.301l26.15,164.417l24.585-11.57c-1.608-30.689,9.901-57.359,28.737-67.76c-14.291-2.88-25.982-14.31-28.406-29.557
			c-3.118-19.601,10.245-38.021,29.846-41.139c19.604-3.117,38.023,10.245,41.141,29.85c2.427,15.244-5.142,29.733-17.832,36.912
			c14.167,2.704,27.459,13.375,37.114,29.058l163.073-76.721l5.645-2.658l2.661,5.645l38.886,82.654l2.654,5.645l-5.638,2.654
			l-34.112,16.051l64.07-10.193L348.542,28.851L0,84.301z M144.051,129.489l-3.796-22.548L329.63,75.025l3.799,22.545
			L144.051,129.489z"/>
		<path d="M307.064,123.433l-162.639,76.522l-93.148,43.83l-24.104,11.338L1.787,267.07l38.885,82.654l251.692-118.422
			l53.584-25.221L307.064,123.433z M152.731,221.542l123.606-58.157l6.412,13.637l-174.095,81.914l-6.415-13.64l14.197-6.674
			L152.731,221.542z M83.994,305.626c-12.102,5.7-26.53,0.5-32.224-11.6c-3.964-8.434-2.558-17.933,2.7-24.887
			c2.287-3.02,5.23-5.613,8.902-7.343c8.108-3.812,17.199-2.655,24.064,2.101c3.392,2.344,6.278,5.505,8.16,9.505
			C101.296,285.508,96.096,299.94,83.994,305.626z M121.488,286.203l-6.418-13.634l41.957-19.741l90.68-42.66l6.418,13.633
			l-43.616,20.521L121.488,286.203z"/>
	</g>
</g>
<g>
</g>
<g>
</g>
<g>
</g>
<g>
</g>
<g>
</g>
<g>
</g>
<g>
</g>
<g>
</g>
<g>
</g>
<g>
</g>
<g>
</g>
<g>
</g>
<g>
</g>
<g>
</g>
<g>
</g>
</svg>
