<?xml version="1.0" encoding="iso-8859-1"?>
<!-- Generator: Adobe Illustrator 17.1.0, SVG Export Plug-In . SVG Version: 6.00 Build 0)  -->
<!DOCTYPE svg PUBLIC "-//W3C//DTD SVG 1.1//EN" "http://www.w3.org/Graphics/SVG/1.1/DTD/svg11.dtd">
<svg version="1.1" id="Capa_1" xmlns="http://www.w3.org/2000/svg" xmlns:xlink="http://www.w3.org/1999/xlink" x="0px" y="0px"
	 viewBox="0 0 355.264 355.264" style="enable-background:new 0 0 355.264 355.264;" xml:space="preserve">
<g>
	<path d="M102.89,182.846c41.557,0,75.366-33.816,75.366-75.383c0-41.567-33.809-75.385-75.366-75.385
		c-41.564,0-75.379,33.817-75.379,75.385C27.51,149.03,61.325,182.846,102.89,182.846z"/>
	<path d="M193.327,223.83c-2.078-10.525-12.097-18.771-22.81-18.771H35.249c-10.713,0-20.732,8.246-22.81,18.772l-12,60.82
		c-1.97,9.978,2.857,22.582,10.99,28.692c2.138,1.606,52.809,39.344,91.454,39.344s89.316-37.737,91.455-39.344
		c8.132-6.11,12.959-18.714,10.989-28.691L193.327,223.83z"/>
	<path d="M267.389,128.66c34.753,0,63.027-28.279,63.027-63.04c0-34.762-28.274-63.043-63.027-63.043
		c-34.76,0-63.038,28.281-63.038,63.043C204.351,100.38,232.629,128.66,267.389,128.66z"/>
	<path d="M354.881,219.041l-10.161-51.485c-1.825-9.251-10.64-16.497-20.066-16.497h-114.54c-9.426,0-18.033,7.246-19.86,16.496
		l-0.828,5.238v0.489c0,0.659-0.002,6.552,7.051,10.314c11.634,6.207,19.363,16.168,21.566,27.33l9.874,50.044l0.147,0.568
		c1.372,4.252,4.246,7.436,8.091,8.967c11.766,4.684,22.273,7.059,31.229,7.059c32.976,0,76.081-32.102,77.9-33.469
		C352.385,238.761,356.601,227.755,354.881,219.041z"/>
</g>
<g>
</g>
<g>
</g>
<g>
</g>
<g>
</g>
<g>
</g>
<g>
</g>
<g>
</g>
<g>
</g>
<g>
</g>
<g>
</g>
<g>
</g>
<g>
</g>
<g>
</g>
<g>
</g>
<g>
</g>
</svg>
